<?xml version="1.0" encoding="utf-8"?>
<!-- Generator: Adobe Illustrator 24.0.0, SVG Export Plug-In . SVG Version: 6.00 Build 0)  -->
<svg version="1.1" id="Layer_1" xmlns="http://www.w3.org/2000/svg" xmlns:xlink="http://www.w3.org/1999/xlink" x="0px" y="0px"
	 viewBox="0 0 113.63 113.63" style="enable-background:new 0 0 113.63 113.63;" xml:space="preserve">
<style type="text/css">
	.st0{fill:#d61549;}
</style>
<g>
	<g>
		<path class="st0" d="M87.98,105.03H14.62c-2.93,0-5.31-2.38-5.31-5.31V12.51c0-1.89,1.54-3.43,3.43-3.43h3.75
			c1.89,0,3.43,1.54,3.43,3.43v78.11c0,1.3,1.06,2.36,2.36,2.36h77.8c0.79-2.16,1.27-4.82,1.27-8.12
			c0-20.32-14.36-27.27-14.97-27.55c-0.74-0.34-1.05-1.22-0.71-1.95c0.34-0.74,1.21-1.06,1.95-0.72
			c0.68,0.31,16.68,7.96,16.68,30.22C104.31,104.8,88.14,105.03,87.98,105.03z M12.75,12.02c-0.27,0-0.49,0.22-0.49,0.49v87.22
			c0,1.3,1.06,2.36,2.36,2.36h73.36c0.38,0,6.88-0.14,10.68-6.17H22.29c-2.93,0-5.31-2.38-5.31-5.31V12.51
			c0-0.27-0.22-0.49-0.49-0.49H12.75z"/>
	</g>
	<g>
		<path class="st0" d="M102.41,86.13H30.98c-3.22,0-5.84-2.62-5.84-5.84V13.05c0-2.45,2-4.45,4.45-4.45h34.9
			c32.26,0,35.99,15.89,35.99,27.84c0,22.75-48.29,40.94-65.67,46.75h67.61c0.81,0,1.47,0.66,1.47,1.47S103.23,86.13,102.41,86.13z
			 M29.59,11.54c-0.83,0-1.51,0.68-1.51,1.51v67.24c0,0.67,0.23,1.28,0.61,1.77c3.55-1.1,19.06-6.05,34.38-13.44
			c22.55-10.88,34.47-22.01,34.47-32.18c0-5-0.57-11.38-5.02-16.34c-5.09-5.68-14.52-8.56-28.03-8.56H29.59z"/>
	</g>
</g>
</svg>
